<?xml version="1.0" encoding="UTF-8" standalone="no"?>
<!DOCTYPE svg PUBLIC "-//W3C//DTD SVG 1.1//EN" "http://www.w3.org/Graphics/SVG/1.1/DTD/svg11.dtd">
<svg version="1.1" xmlns="http://www.w3.org/2000/svg" xmlns:xlink="http://www.w3.org/1999/xlink" preserveAspectRatio="xMidYMid meet" viewBox="0 0 640 640" width="640" height="640"><defs><path d="M640 320C640 496.61 496.61 640 320 640C143.39 640 0 496.61 0 320C0 143.39 143.39 0 320 0C496.61 0 640 143.39 640 320Z" id="e1b0cxgyN"></path><path d="M454.32 220.22C454.32 293.43 394.13 352.87 320 352.87C245.87 352.87 185.68 293.43 185.68 220.22C185.68 147.01 245.87 87.58 320 87.58C394.13 87.58 454.32 147.01 454.32 220.22Z" id="bV5JYXpQl"></path><path d="M454.32 220.22C454.39 281.72 462.33 333.95 478.14 376.91C493.95 419.88 517.62 453.58 549.16 478.01L90.84 478.01C125.16 453.58 150.24 419.88 166.06 376.91C181.89 333.95 188.47 281.72 185.8 220.22L454.32 220.22Z" id="b4O7inte"></path><path d="M384.76 483.6C379.01 499.66 370.8 511.87 360.14 520.24C349.48 528.61 336.37 533.36 320.81 534.49C304.3 533.36 291.17 528.61 281.43 520.24C271.69 511.87 265.33 499.66 262.35 483.6L384.76 483.6Z" id="b4XS2mlTEV"></path><path d="M365.69 101.15C365.69 124.4 346.81 143.28 323.56 143.28C300.31 143.28 281.43 124.4 281.43 101.15C281.43 77.9 300.31 59.02 323.56 59.02C346.81 59.02 365.69 77.9 365.69 101.15Z" id="a3ybkFdSWy"></path></defs><g><g><g><use xlink:href="#e1b0cxgyN" opacity="1" fill="#d9324a" fill-opacity="1"></use></g><g><use xlink:href="#bV5JYXpQl" opacity="1" fill="#ffffff" fill-opacity="1"></use></g><g><use xlink:href="#b4O7inte" opacity="1" fill="#ffffff" fill-opacity="1"></use><g><use xlink:href="#b4O7inte" opacity="1" fill-opacity="0" stroke="#000000" stroke-width="0" stroke-opacity="1"></use></g></g><g><use xlink:href="#b4XS2mlTEV" opacity="1" fill="#ffffff" fill-opacity="1"></use><g><use xlink:href="#b4XS2mlTEV" opacity="1" fill-opacity="0" stroke="#000000" stroke-width="0" stroke-opacity="1"></use></g></g><g><use xlink:href="#a3ybkFdSWy" opacity="1" fill="#ffffff" fill-opacity="1"></use></g></g></g></svg>